<?xml version="1.0" encoding="UTF-8" standalone="no"?>
<svg
   xmlns:dc="http://purl.org/dc/elements/1.1/"
   xmlns:cc="http://creativecommons.org/ns#"
   xmlns:rdf="http://www.w3.org/1999/02/22-rdf-syntax-ns#"
   xmlns:svg="http://www.w3.org/2000/svg"
   xmlns="http://www.w3.org/2000/svg"
   xmlns:sodipodi="http://sodipodi.sourceforge.net/DTD/sodipodi-0.dtd"
   xmlns:inkscape="http://www.inkscape.org/namespaces/inkscape"
   version="1.1"
   x="0px"
   y="0px"
   width="100px"
   height="100px"
   viewBox="0 0 100 100"
   enable-background="new 0 0 100 100"
   xml:space="preserve"
   id="svg2"
   inkscape:version="0.48.4 r9939"
   sodipodi:docname="football-player.svg"><metadata
     id="metadata18"><rdf:RDF><cc:Work
         rdf:about=""><dc:format>image/svg+xml</dc:format><dc:type
           rdf:resource="http://purl.org/dc/dcmitype/StillImage" /><dc:title></dc:title></cc:Work></rdf:RDF></metadata><defs
     id="defs16" /><sodipodi:namedview
     pagecolor="#ffffff"
     bordercolor="#666666"
     borderopacity="1"
     objecttolerance="10"
     gridtolerance="10"
     guidetolerance="10"
     inkscape:pageopacity="0"
     inkscape:pageshadow="2"
     inkscape:window-width="640"
     inkscape:window-height="480"
     id="namedview14"
     showgrid="false"
     inkscape:zoom="4.75"
     inkscape:cx="50"
     inkscape:cy="50"
     inkscape:window-x="0"
     inkscape:window-y="24"
     inkscape:window-maximized="0"
     inkscape:current-layer="svg2" /><g
     id="Captions" /><g
     id="Your_Icon"
     style="fill:#008000"><path
       fill="#000000"
       d="M57.081,15.456c0,0-4.556-0.76-5.611,3.29c-1.056,4.051-0.321,8.375,2.386,9.08   c2.705,0.707,5.551-3.067,6.515-6.76C61.332,17.375,58.169,15.74,57.081,15.456z"
       id="path6"
       style="fill:#008000" /><circle
       fill="#000000"
       cx="22.103"
       cy="60.376"
       r="6.731"
       id="circle8"
       style="fill:#008000" /><path
       fill="#000000"
       d="M31.954,84.319c0,0-2.635-1.169-1.018-4.373c1.616-3.206,8.106-14.662,8.106-14.662l1.65-13.623   L30.412,55.51c0,0-1.213-3.3-5.56-4.344l14.441-7.214l6.511-13.1l-10.714,3.05L25.694,39.8c0,0-2.247,0.793-3.201-0.759   c-0.954-1.553,0.016-3.192,1.044-3.72c1.025-0.527,10.101-6.356,10.101-6.356l13.892-5.769c0,0,0.57-0.104,1.113-0.023   c0,0,0.515,6.022,4.509,7.203c3.99,1.182,8.135-4.396,8.135-4.396s0.733,0.192,1.848,0.654c0.66,0.276,8.553,4.29,8.553,4.29   l9.749-2.934c0,0,2.487-0.585,3.064,1.614c0.614,2.344-1.158,3.014-1.475,3.106c-0.315,0.095-11.561,3.219-11.561,3.219   l-10.916-2.887c0,0-0.632,1.476,0.756,2.362L50.219,51.389l-4.986,15.719l-9.746,16.392C35.486,83.499,34.241,85.271,31.954,84.319   z"
       id="path10"
       style="fill:#008000" /><path
       fill="#000000"
       d="M38.811,42.269c0.538-2.605-3.203-4.422-3.203-4.422l-10.797,11.64L38.811,42.269z"
       id="path12"
       style="fill:#008000" /></g></svg>