<?xml version="1.0" encoding="UTF-8" standalone="no"?>
<!-- Generator: Adobe Illustrator 15.0.2, SVG Export Plug-In . SVG Version: 6.00 Build 0)  -->

<svg
   xmlns:dc="http://purl.org/dc/elements/1.1/"
   xmlns:cc="http://creativecommons.org/ns#"
   xmlns:rdf="http://www.w3.org/1999/02/22-rdf-syntax-ns#"
   xmlns:svg="http://www.w3.org/2000/svg"
   xmlns="http://www.w3.org/2000/svg"
   xmlns:sodipodi="http://sodipodi.sourceforge.net/DTD/sodipodi-0.dtd"
   xmlns:inkscape="http://www.inkscape.org/namespaces/inkscape"
   version="1.2"
   id="Capa_1"
   x="0px"
   y="0px"
   width="186.75999"
   height="293"
   viewBox="0 0 186.76001 571.85317"
   xml:space="preserve"
   inkscape:version="0.48.4 r9939"
   sodipodi:docname="sd_eibar2.svg"><metadata
   id="metadata53"><rdf:RDF><cc:Work
       rdf:about=""><dc:format>image/svg+xml</dc:format><dc:type
         rdf:resource="http://purl.org/dc/dcmitype/StillImage" /><dc:title /></cc:Work></rdf:RDF></metadata><defs
   id="defs51" /><sodipodi:namedview
   pagecolor="#ffffff"
   bordercolor="#666666"
   borderopacity="1"
   objecttolerance="10"
   gridtolerance="10"
   guidetolerance="10"
   inkscape:pageopacity="0"
   inkscape:pageshadow="2"
   inkscape:window-width="1920"
   inkscape:window-height="1018"
   id="namedview49"
   showgrid="false"
   inkscape:zoom="2.7337884"
   inkscape:cx="93.379997"
   inkscape:cy="146.5"
   inkscape:window-x="-8"
   inkscape:window-y="-8"
   inkscape:window-maximized="1"
   inkscape:current-layer="Capa_1"
   fit-margin-top="0"
   fit-margin-left="0"
   fit-margin-right="0"
   fit-margin-bottom="0" />
<path
   d="m 217.36097,151.85845 -1.499,0.808 c -0.002,0.002 -0.605,0.328 -1.905,0.947 -9.091,4.322 -50.495,21.988 -120.376006,21.988 -39.936003,0 -70.567003,-5.769 -91.1880041,-11.52 -10.3100004,-2.875 -18.1169989,-5.745 -23.3289989,-7.89 -2.606001,-1.072 -4.564001,-1.962 -5.862001,-2.579 -1.3,-0.619 -1.903,-0.947 -1.906,-0.947 l -1.501,-0.808 -56.519999,56.521 180.303003,360.619 2.048,-4.099 178.256006,-356.52 -56.521,-56.52 z"
   id="path3"
   inkscape:connector-curvature="0" />
<polygon
   points="480.981,320.291 429.169,268.48 267.392,592.043 306.25,669.762 "
   id="polygon5"
   style="fill:#004083"
   transform="translate(-212.67003,-111.00655)" />
<path
   d="m 93.579964,180.18145 c -72.182003,0.002 -114.551003,-18.646 -122.920004,-22.708 l -51.811999,51.811 135.874,271.753 161.777009,-323.564 c -8.368,4.061 -50.738,22.709 -122.919006,22.708 z"
   id="path7"
   inkscape:connector-curvature="0"
   style="fill:#ffffff" />
<path
   d="m 107.85097,466.11945 c 1.434,0.512 5.305,1.885 7.559,-2.622 1.495,-2.99 0.266,-4.937 -1.004,-5.571 -2.212,-1.106 -4.117,0.757 -6.596,3.769 -2.58101,3.216 -8.029006,9.812 -14.748006,6.452 -2.499,-1.25 -4.077,-3.625 -4.527,-5.899 -0.471,-2.13 -0.656,-5.141 2.192,-10.835 2.232,-4.465 6.185,-10.733 14.768996,-7.722 l -3.729,8.787 c -1.25,-0.369 -4.136996,-1.25 -6.041996,2.561 -1.167,2.335 -0.43,3.728 0.717,4.301 1.229,0.615 2.375,-0.246 4.218996,-2.499 5.204,-6.514 10.07901,-11.758 16.87901,-8.357 3.031,1.516 9.156,6.78 3.543,18.005 -3.667,7.333 -6.882,8.747 -9.074,9.238 -3.933,0.902 -6.73901,-0.246 -7.94801,-0.696 l 3.79001,-8.912 z"
   id="path9"
   inkscape:connector-curvature="0"
   style="fill:#ffffff" />
<path
   d="m 125.25197,436.53745 8.152,4.076 -4.363,8.727 -8.152,-4.077 4.363,-8.726 z"
   id="path11"
   inkscape:connector-curvature="0"
   style="fill:#ffffff" />
<path
   d="m 113.56797,406.95545 c 0.758,-1.516 2.622,-4.834 5.408,-6.718 5.489,-3.708 12.167,-1.393 15.936,0.491 4.22,2.11 9.402,5.469 10.099,12.167 0.307,3.072 -1.659,7.825 -2.109,8.726 l -6.719,13.437 -29.332,-14.666 6.717,-13.437 z m 4.446,7.702 16.059,8.03 1.106,-2.212 c 2.171,-4.342 2.499,-7.046 -4.629,-10.61 -6.923,-3.461 -9.381,-1.516 -11.409,2.54 l -1.127,2.252 z"
   id="path13"
   inkscape:connector-curvature="0"
   style="fill:#ffffff" />
<path
   d="m 147.67597,391.68945 8.152,4.076 -4.363,8.726 -8.152,-4.076 4.363,-8.726 z"
   id="path15"
   inkscape:connector-curvature="0"
   style="fill:#ffffff" />
<path
   d="m 148.20197,337.68745 6.309,3.154 -7.62,15.24 4.67,2.335 7.067,-14.133 5.94,2.97 -7.067,14.133 5.776,2.888 7.845,-15.69 6.637,3.318 -12.372,24.744 -29.332,-14.666 12.147,-24.293 z"
   id="path17"
   inkscape:connector-curvature="0"
   style="fill:#ffffff" />
<path
   d="m 155.58097,322.92745 29.332,14.666 -4.527,9.054 -29.332,-14.666 4.527,-9.054 z"
   id="path19"
   inkscape:connector-curvature="0"
   style="fill:#ffffff" />
<path
   d="m 167.25097,299.58845 c 3.933,-7.866 9.914,-6.001 11.675,-5.121 3.605,1.802 4.486,4.854 4.015,7.947 l 0.082,0.041 c 1.086,-1.352 4.527,-5.367 10.263,-2.499 4.096,2.048 4.937,5.695 5.039,7.64 0.103,2.356 -2.376,7.927 -2.396,7.968 l -7.784,15.567 -29.332,-14.666 8.438,-16.877 z m 7.599,13.58 1.967,-3.933 c 0.615,-1.229 1.864,-3.831 -0.963,-5.244 -2.704,-1.353 -3.953,1.146 -4.588,2.417 l -1.986,3.974 5.57,2.786 z m 11.512,5.756 2.314,-4.629 c 0.553,-1.106 2.13,-4.261 -0.942,-5.797 -2.827,-1.413 -4.425,1.578 -5.039,2.806 l -2.315,4.629 5.982,2.991 z"
   id="path21"
   inkscape:connector-curvature="0"
   style="fill:#ffffff" />
<path
   d="m 202.67497,289.88345 4.178,3.831 -4.649,9.299 -23.822,-25.686 4.957,-9.914 34.842,3.646 -4.732,9.463 -5.612,-0.962 -5.162,10.323 z m -2.09,-11.593 -12.126,-2.069 -0.041,0.082 8.931,8.459 3.236,-6.472 z"
   id="path23"
   inkscape:connector-curvature="0"
   style="fill:#ffffff" />
<path
   d="m 190.33997,253.40845 7.559,-15.117 c 1.68,-3.359 3.38,-6.555 6.678,-7.825 2.786,-1.065 5.387,-0.327 7.148,0.553 2.95,1.475 6.309,4.588 4.67,11.143 l 0.083,0.042 c 0.983,-1.045 1.884,-1.823 3.072,-2.151 1.25,-0.348 2.56,-0.717 3.892,-0.717 l 10.651,-0.103 -5.121,10.242 -11.368,0.307 c -1.823,0.062 -3.728,0.184 -4.875,2.479 l -0.41,0.819 11.88,5.94 -4.527,9.054 -29.332,-14.666 z m 16.407,-3.113 1.966,-3.933 c 0.164,-0.328 0.328,-0.758 0.45,-1.209 0.533,-1.884 0.513,-2.048 0.369,-2.785 -0.205,-0.717 -0.737,-1.496 -1.638,-1.946 -2.909,-1.454 -4.261,1.25 -5.039,2.806 l -2.048,4.097 5.94,2.97 z"
   id="path25"
   inkscape:connector-curvature="0"
   style="fill:#ffffff" />
<path
   d="m 93.579964,162.09645 c 43.935006,-0.002 79.546006,-35.614 79.547006,-79.547994 h 0.001 c -0.002,-43.934 -35.614,-79.5460003 -79.548006,-79.5490003 -43.936003,0.003 -79.548004,35.6150003 -79.549004,79.5490003 0.002,43.933994 35.614001,79.545994 79.549004,79.547994 z"
   id="path27"
   inkscape:connector-curvature="0" />
<path
   d="m 20.170961,97.813454 c 13.733,9.845996 27.804,11.960996 37.146,11.960996 0.013,0 0.026,0 0.04,0 3.558,0 6.431,-0.298 8.378,-0.583 -0.054,10.727 -3.088,20.531 -6.149,27.653 -1.542,3.595 -3.086,6.505 -4.237,8.504 -0.271,0.469 -0.518,0.885 -0.741,1.251 -5.112,-3.118 -9.825,-6.829 -14.039,-11.042 -10.14,-10.143 -17.383,-23.168 -20.398,-37.743996 z"
   id="path29"
   inkscape:connector-curvature="0"
   style="fill:#a95932" />
<path
   d="m 116.83797,108.87945 0,0 c 0.035,18.81 8.385,34.442 11.727,39.973 -9.81,5.187 -20.906,8.25 -32.694006,8.604 V 67.225456 c 10.072996,0.247 17.274006,2.088 21.996006,3.892 2.536,0.967 4.36,1.927 5.528,2.625 0.089,0.054 0.149,0.094 0.231,0.145 -1.903,4.762 -6.775,18.529 -6.788,34.991994 z"
   id="path31"
   inkscape:connector-curvature="0"
   style="fill:#a95932" />
<path
   d="m 91.289964,157.45645 c -11.789,-0.354 -22.885003,-3.417 -32.694003,-8.604 3.342,-5.531 11.693003,-21.164 11.726003,-39.973 l 0,-0.001 c -0.013,-16.460994 -4.885003,-30.228994 -6.787003,-34.992994 3.148,-1.935 11.903003,-6.244 27.756003,-6.643 v 90.213994 z"
   id="path33"
   inkscape:connector-curvature="0"
   style="fill:#a95932" />
<path
   d="m 146.58997,135.55745 c -4.215,4.214 -8.928,7.925 -14.042,11.043 -3.042,-5.007 -11.055,-19.991 -11.125,-37.409 1.948,0.285 4.821,0.582 8.378,0.583 0.014,0 0.027,0 0.041,0 9.342,0 23.411,-2.116 37.147,-11.962996 -3.014,14.577996 -10.257,27.601996 -20.399,37.745996 z"
   id="path35"
   inkscape:connector-curvature="0"
   style="fill:#a95932" />
<path
   d="m 168.54797,82.548456 c 0,2.933 -0.187,5.821 -0.514,8.666 -13.941,11.663994 -28.687,13.971994 -38.232,13.978994 -3.123,0.001 -5.679,-0.247 -7.434,-0.492 -0.301,-0.042 -0.568,-0.083 -0.821,-0.124 0.424,-7.910994 1.929,-15.041994 3.45,-20.416994 0.896,-3.169 1.79,-5.729 2.457,-7.486 0.241,-0.636 0.449,-1.157 0.618,-1.569 18.733,-3.098 31.024,-13.054 36.068,-17.921 2.847,7.921 4.407,16.457 4.408,25.364 l 0,0 z"
   id="path37"
   inkscape:connector-curvature="0"
   style="fill:#a95932" />
<path
   d="m 162.28897,52.551456 c -3.306,3.487 -15.563,14.943 -35.264,18.073 -2.869,-1.96 -12.676,-7.559 -31.155006,-7.982 V 7.6394558 c 19.795006,0.595 37.649006,8.8310002 50.720006,21.8980002 6.577,6.579 11.922,14.376 15.699,23.014 z"
   id="path39"
   inkscape:connector-curvature="0"
   style="fill:#a95932" />
<path
   d="m 40.569961,29.537456 c 13.071,-13.067 30.924003,-21.3030002 50.720003,-21.8980002 V 62.642456 c -18.514,0.425 -28.322003,6.042 -31.170003,7.993 -11.569,-1.847 -20.563,-6.544 -26.701,-10.84 -3.148,-2.203 -5.542,-4.296 -7.136,-5.824 -0.578,-0.556 -1.047,-1.032 -1.413,-1.417 3.777,-8.64 9.123,-16.438 15.7,-23.017 z"
   id="path41"
   inkscape:connector-curvature="0"
   style="fill:#a95932" />
<path
   d="m 23.020961,57.183456 c 5.043,4.866 17.333,14.823 36.068,17.921 0.168,0.412 0.375,0.933 0.617,1.568 1.802,4.741 5.237,15.33 5.909,27.901994 -1.728,0.277 -4.592,0.619 -8.258,0.619 -9.546,-0.008 -24.293,-2.314 -38.23,-13.979994 -0.328,-2.845 -0.514,-5.732 -0.514,-8.666 0,-8.906 1.56,-17.442 4.408,-25.364 z"
   id="path43"
   inkscape:connector-curvature="0"
   style="fill:#a95932" />
<line
   x1="216.49896"
   y1="157.47346"
   x2="216.49896"
   y2="151.66045"
   id="line45"
   style="fill:none;stroke:#000000;stroke-width:1.22150004" />
<polygon
   points="267.392,357.992 238.889,329.489 210.387,357.992 238.889,386.494 210.387,414.997 238.889,443.499 267.392,414.997 295.895,443.499 324.397,414.997 295.895,386.494 324.397,357.992 295.895,329.489 "
   id="polygon47"
   style="fill:#e62627"
   transform="translate(-212.67003,-111.00655)" />
<path
   sodipodi:type="arc"
   style="fill:#a95932;fill-opacity:1"
   id="path3798"
   sodipodi:cx="306.01907"
   sodipodi:cy="125.53284"
   sodipodi:rx="24.540255"
   sodipodi:ry="7.8654661"
   d="m 330.55933,125.53284 a 24.540255,7.8654661 0 1 1 -49.08051,0 24.540255,7.8654661 0 1 1 49.08051,0 z"
   transform="translate(-212.12658,-110.08069)" /><path
   sodipodi:type="arc"
   style="fill:#a95932;fill-opacity:1"
   id="path3798-7"
   sodipodi:cx="306.01907"
   sodipodi:cy="125.53284"
   sodipodi:rx="24.540255"
   sodipodi:ry="7.8654661"
   d="m 330.55933,125.53284 a 24.540255,7.8654661 0 1 1 -49.08051,0 24.540255,7.8654661 0 1 1 49.08051,0 z"
   transform="translate(-212.42348,24.130546)" /><path
   sodipodi:type="arc"
   style="fill:#a95932;fill-opacity:1"
   id="path3798-4"
   sodipodi:cx="306.01907"
   sodipodi:cy="125.53284"
   sodipodi:rx="24.540255"
   sodipodi:ry="7.8654661"
   d="m 330.55933,125.53284 a 24.540255,7.8654661 0 1 1 -49.08051,0 24.540255,7.8654661 0 1 1 49.08051,0 z"
   transform="matrix(1,0,0,1.0754247,-212.5718,-59.419898)" /><rect
   style="fill:#a95932;fill-opacity:1"
   id="rect3827"
   width="7.6337357"
   height="39.896099"
   x="90.235268"
   y="22.781908" /><rect
   style="fill:#a95932;fill-opacity:1"
   id="rect3829"
   width="13.339101"
   height="67.394989"
   x="87.370834"
   y="78.395172"
   ry="0" /><path
   sodipodi:type="arc"
   style="fill:#000000;fill-opacity:1"
   id="path3831"
   sodipodi:cx="305.89484"
   sodipodi:cy="175.20477"
   sodipodi:rx="4.6718483"
   sodipodi:ry="0.33370346"
   d="m 310.56668,175.20477 a 4.6718483,0.33370346 0 1 1 -9.34369,0 4.6718483,0.33370346 0 1 1 9.34369,0 z"
   transform="matrix(0.94444445,0,0,0.88888887,-195.29423,-92.841579)" /></svg>